<svg width="44" height="437" viewBox="0 0 44 437" fill="none" xmlns="http://www.w3.org/2000/svg">
<mask id="path-1-outside-1_12_2" maskUnits="userSpaceOnUse" x="-1" y="-0.999974" width="46" height="439" fill="black">
<rect fill="white" x="-1" y="-0.999974" width="46" height="439"/>
<path d="M0.699996 387.26H43L43 399.02H19.66L43 407V416.84L19.48 424.88H43V436.64H0.699996L0.699996 422.42L28.18 411.8L0.699996 401.42V387.26ZM0.699996 333.106L29.56 347.986H43V359.806H29.56L0.699996 374.686L0.699996 361.246L17.02 353.806L0.699996 346.366L0.699996 333.106ZM43.42 284.051C43.42 288.971 42.26 293.011 39.94 296.171C37.58 299.331 34.22 301.031 29.86 301.271V288.731C31.34 288.611 32.42 288.171 33.1 287.411C33.78 286.651 34.12 285.671 34.12 284.471C34.12 283.391 33.86 282.511 33.34 281.831C32.78 281.111 32.02 280.751 31.06 280.751C29.82 280.751 28.86 281.331 28.18 282.491C27.5 283.651 26.74 285.531 25.9 288.131C24.98 290.891 24.1 293.131 23.26 294.851C22.38 296.531 21.12 298.011 19.48 299.291C17.8 300.531 15.62 301.151 12.94 301.151C10.22 301.151 7.9 300.471 5.98 299.111C4.02 297.751 2.54 295.871 1.54 293.471C0.539997 291.071 0.0399974 288.351 0.0399974 285.311C0.0399974 280.391 1.2 276.471 3.52 273.551C5.8 270.591 9.02 269.011 13.18 268.811V281.591C11.9 281.631 10.94 282.031 10.3 282.791C9.66 283.511 9.34 284.451 9.34 285.611C9.34 286.491 9.6 287.211 10.12 287.771C10.64 288.331 11.38 288.611 12.34 288.611C13.14 288.611 13.84 288.311 14.44 287.711C15 287.071 15.5 286.291 15.94 285.371C16.34 284.451 16.86 283.091 17.5 281.291C18.42 278.611 19.34 276.411 20.26 274.691C21.14 272.931 22.4 271.431 24.04 270.191C25.64 268.911 27.68 268.271 30.16 268.271C32.68 268.271 34.94 268.911 36.94 270.191C38.94 271.431 40.52 273.251 41.68 275.651C42.84 278.011 43.42 280.811 43.42 284.051ZM10.12 242.044H17.02L17.02 228.544H25.96L25.96 242.044H33.58L33.58 226.744H43V253.804H0.699996L0.699996 226.744H10.12L10.12 242.044ZM43 190.513L27.4 198.913V200.173H43V211.933H0.699996L0.699996 193.393C0.699996 189.993 1.3 187.113 2.5 184.753C3.66 182.393 5.28 180.613 7.36 179.413C9.4 178.213 11.7 177.613 14.26 177.613C17.14 177.613 19.68 178.413 21.88 180.013C24.04 181.573 25.58 183.873 26.5 186.913L43 177.373V190.513ZM19.36 200.173L19.36 194.353C19.36 192.753 18.98 191.553 18.22 190.753C17.46 189.953 16.36 189.553 14.92 189.553C13.56 189.553 12.5 189.973 11.74 190.813C10.94 191.613 10.54 192.793 10.54 194.353L10.54 200.173H19.36ZM0.699996 122.105L43 136.685V151.745L0.699996 166.385L0.699996 153.785L31.24 144.185L0.699996 134.645V122.105ZM0.699996 97.6808H43V109.441H0.699996V97.6808ZM21.76 83.4238C17.6 83.4238 13.9 82.5638 10.66 80.8438C7.38 79.0838 4.84 76.6038 3.04 73.4038C1.2 70.2038 0.279998 66.5238 0.279998 62.3638C0.279998 57.0838 1.7 52.6438 4.54 49.0438C7.34 45.4438 11.16 43.1238 16 42.0838V54.7438C14.4 55.5038 13.18 56.5638 12.34 57.9238C11.5 59.2438 11.08 60.7838 11.08 62.5438C11.08 65.2638 12.06 67.4438 14.02 69.0838C15.94 70.6838 18.52 71.4838 21.76 71.4838C25.04 71.4838 27.66 70.6838 29.62 69.0838C31.54 67.4438 32.5 65.2638 32.5 62.5438C32.5 60.7838 32.08 59.2438 31.24 57.9238C30.4 56.5638 29.18 55.5038 27.58 54.7438V42.0838C32.42 43.1238 36.26 45.4438 39.1 49.0438C41.9 52.6438 43.3 57.0838 43.3 62.3638C43.3 66.5238 42.4 70.2038 40.6 73.4038C38.76 76.6038 36.22 79.0838 32.98 80.8438C29.7 82.5638 25.96 83.4238 21.76 83.4238ZM10.12 15.755H17.02V2.25502H25.96V15.755H33.58V0.455024H43V27.515H0.699996L0.699996 0.455024H10.12V15.755Z"/>
</mask>
<path d="M0.699996 387.26V386.26H-0.300004V387.26H0.699996ZM43 387.26H44V386.26H43V387.26ZM43 399.02V400.02H44V399.02H43ZM19.66 399.02V398.02L19.3365 399.966L19.66 399.02ZM43 407H44V406.285L43.3235 406.054L43 407ZM43 416.84L43.3235 417.786L44 417.555V416.84H43ZM19.48 424.88L19.1565 423.934L19.48 425.88V424.88ZM43 424.88H44V423.88H43V424.88ZM43 436.64V437.64H44V436.64H43ZM0.699996 436.64H-0.300004V437.64H0.699996V436.64ZM0.699996 422.42L0.339516 421.487L-0.300004 421.734V422.42H0.699996ZM28.18 411.8L28.5405 412.733L30.9817 411.789L28.5334 410.865L28.18 411.8ZM0.699996 401.42H-0.300004V402.111L0.346634 402.355L0.699996 401.42ZM0.699996 388.26H43V386.26H0.699996V388.26ZM42 387.26L42 399.02H44L44 387.26H42ZM43 398.02H19.66V400.02H43V398.02ZM19.3365 399.966L42.6765 407.946L43.3235 406.054L19.9835 398.074L19.3365 399.966ZM42 407V416.84H44V407H42ZM42.6765 415.894L19.1565 423.934L19.8035 425.826L43.3235 417.786L42.6765 415.894ZM19.48 425.88H43V423.88H19.48V425.88ZM42 424.88V436.64H44V424.88H42ZM43 435.64H0.699996V437.64H43V435.64ZM1.7 436.64L1.7 422.42H-0.300004L-0.300004 436.64H1.7ZM1.06048 423.353L28.5405 412.733L27.8195 410.867L0.339516 421.487L1.06048 423.353ZM28.5334 410.865L1.05336 400.485L0.346634 402.355L27.8266 412.735L28.5334 410.865ZM1.7 401.42V387.26H-0.300004V401.42H1.7ZM0.699996 333.106L1.15826 332.217L-0.300004 331.465V333.106H0.699996ZM29.56 347.986L29.1017 348.875L29.3174 348.986H29.56V347.986ZM43 347.986H44V346.986H43V347.986ZM43 359.806V360.806H44V359.806H43ZM29.56 359.806V358.806H29.3174L29.1017 358.917L29.56 359.806ZM0.699996 374.686H-0.300004V376.326L1.15826 375.575L0.699996 374.686ZM0.699996 361.246L0.285185 360.336L-0.300004 360.603V361.246H0.699996ZM17.02 353.806L17.4348 354.716L19.4307 353.806L17.4348 352.896L17.02 353.806ZM0.699996 346.366H-0.300004V347.009L0.285185 347.276L0.699996 346.366ZM0.24173 333.995L29.1017 348.875L30.0183 347.097L1.15826 332.217L0.24173 333.995ZM29.56 348.986H43V346.986H29.56V348.986ZM42 347.986V359.806H44V347.986H42ZM43 358.806H29.56V360.806H43V358.806ZM29.1017 358.917L0.24173 373.797L1.15826 375.575L30.0183 360.695L29.1017 358.917ZM1.7 374.686L1.7 361.246H-0.300004L-0.300004 374.686H1.7ZM1.11481 362.156L17.4348 354.716L16.6052 352.896L0.285185 360.336L1.11481 362.156ZM17.4348 352.896L1.11481 345.456L0.285185 347.276L16.6052 354.716L17.4348 352.896ZM1.7 346.366L1.7 333.106H-0.300004L-0.300004 346.366H1.7ZM39.94 296.171L40.7412 296.769L40.7461 296.763L39.94 296.171ZM29.86 301.271H28.86V302.328L29.915 302.27L29.86 301.271ZM29.86 288.731L29.7792 287.734L28.86 287.809V288.731H29.86ZM33.1 287.411L33.8452 288.078V288.078L33.1 287.411ZM33.34 281.831L34.1344 281.224L34.1293 281.217L33.34 281.831ZM28.18 282.491L27.3173 281.985L28.18 282.491ZM25.9 288.131L26.8487 288.447L26.8516 288.439L25.9 288.131ZM23.26 294.851L24.1458 295.315L24.1524 295.303L24.1586 295.29L23.26 294.851ZM19.48 299.291L20.0738 300.096L20.0847 300.088L20.0953 300.079L19.48 299.291ZM5.98 299.111L6.55804 298.295L6.55008 298.29L5.98 299.111ZM1.54 293.471L0.616919 293.856L1.54 293.471ZM3.52 273.551L4.30295 274.173L4.30763 274.167L4.31222 274.161L3.52 273.551ZM13.18 268.811H14.18V267.762L13.132 267.812L13.18 268.811ZM13.18 281.591L13.2112 282.591L14.18 282.56V281.591H13.18ZM10.3 282.791L11.0474 283.455L11.0563 283.445L11.0649 283.435L10.3 282.791ZM10.12 287.771L10.8528 287.091L10.12 287.771ZM14.44 287.711L15.1471 288.418L15.1706 288.395L15.1926 288.37L14.44 287.711ZM15.94 285.371L16.8421 285.803L16.8499 285.786L16.8571 285.77L15.94 285.371ZM17.5 281.291L18.4423 281.626L18.4458 281.616L17.5 281.291ZM20.26 274.691L21.1418 275.163L21.1483 275.151L21.1544 275.138L20.26 274.691ZM24.04 270.191L24.6431 270.989L24.654 270.981L24.6647 270.972L24.04 270.191ZM36.94 270.191L36.4009 271.033L36.407 271.037L36.4131 271.041L36.94 270.191ZM41.68 275.651L40.7796 276.086L40.7825 276.092L41.68 275.651ZM42.42 284.051C42.42 288.813 41.2989 292.63 39.1339 295.579L40.7461 296.763C43.2211 293.392 44.42 289.129 44.42 284.051H42.42ZM39.1388 295.573C36.9764 298.468 33.9051 300.047 29.805 300.273L29.915 302.27C34.5349 302.015 38.1836 300.194 40.7412 296.769L39.1388 295.573ZM30.86 301.271V288.731H28.86V301.271H30.86ZM29.9408 289.728C31.5607 289.596 32.93 289.101 33.8452 288.078L32.3548 286.744C31.91 287.241 31.1192 287.626 29.7792 287.734L29.9408 289.728ZM33.8452 288.078C34.7176 287.103 35.12 285.871 35.12 284.471H33.12C33.12 285.471 32.8424 286.199 32.3548 286.744L33.8452 288.078ZM35.12 284.471C35.12 283.23 34.8193 282.119 34.1344 281.224L32.5456 282.439C32.9007 282.903 33.12 283.552 33.12 284.471H35.12ZM34.1293 281.217C33.3686 280.239 32.3098 279.751 31.06 279.751V281.751C31.7302 281.751 32.1913 281.983 32.5506 282.445L34.1293 281.217ZM31.06 279.751C29.4302 279.751 28.1584 280.551 27.3173 281.985L29.0427 282.997C29.5616 282.112 30.2098 281.751 31.06 281.751V279.751ZM27.3173 281.985C26.5796 283.244 25.7928 285.21 24.9484 287.824L26.8516 288.439C27.6872 285.852 28.4204 284.058 29.0427 282.997L27.3173 281.985ZM24.9513 287.815C24.0389 290.552 23.1748 292.747 22.3614 294.412L24.1586 295.29C25.0252 293.515 25.9211 291.23 26.8487 288.447L24.9513 287.815ZM22.3742 294.387C21.5664 295.929 20.4035 297.302 18.8647 298.503L20.0953 300.079C21.8365 298.72 23.1936 297.133 24.1458 295.315L22.3742 294.387ZM18.8861 298.487C17.4214 299.568 15.4671 300.151 12.94 300.151V302.151C15.7729 302.151 18.1786 301.495 20.0738 300.096L18.8861 298.487ZM12.94 300.151C10.3937 300.151 8.28369 299.517 6.55801 298.295L5.40198 299.927C7.5163 301.425 10.0463 302.151 12.94 302.151V300.151ZM6.55008 298.29C4.76113 297.048 3.39644 295.327 2.46307 293.086L0.616919 293.856C1.68355 296.416 3.27886 298.454 5.40991 299.933L6.55008 298.29ZM2.46307 293.086C1.52169 290.827 1.04 288.241 1.04 285.311H-0.960002C-0.960002 288.461 -0.441699 291.315 0.616919 293.856L2.46307 293.086ZM1.04 285.311C1.04 280.545 2.16274 276.867 4.30295 274.173L2.73704 272.929C0.237258 276.075 -0.960002 280.238 -0.960002 285.311H1.04ZM4.31222 274.161C6.39131 271.462 9.32329 269.998 13.228 269.81L13.132 267.812C8.7167 268.025 5.20868 269.72 2.72777 272.941L4.31222 274.161ZM12.18 268.811V281.591H14.18V268.811H12.18ZM13.1488 280.592C11.6721 280.638 10.4076 281.111 9.53509 282.147L11.0649 283.435C11.4724 282.951 12.1279 282.624 13.2112 282.591L13.1488 280.592ZM9.55259 282.127C8.71807 283.066 8.33999 284.259 8.33999 285.611H10.34C10.34 284.643 10.6019 283.957 11.0474 283.455L9.55259 282.127ZM8.33999 285.611C8.33999 286.703 8.66945 287.679 9.3872 288.452L10.8528 287.091C10.5305 286.744 10.34 286.28 10.34 285.611H8.33999ZM9.3872 288.452C10.1426 289.265 11.178 289.611 12.34 289.611V287.611C11.582 287.611 11.1374 287.397 10.8528 287.091L9.3872 288.452ZM12.34 289.611C13.4225 289.611 14.3722 289.193 15.1471 288.418L13.7329 287.004C13.3078 287.429 12.8574 287.611 12.34 287.611V289.611ZM15.1926 288.37C15.823 287.649 16.3704 286.789 16.8421 285.803L15.0379 284.94C14.6296 285.793 14.177 286.493 13.6874 287.053L15.1926 288.37ZM16.8571 285.77C17.271 284.818 17.8001 283.432 18.4422 281.626L16.5578 280.956C15.9199 282.75 15.409 284.084 15.0229 284.972L16.8571 285.77ZM18.4458 281.616C19.3555 278.966 20.2555 276.82 21.1418 275.163L19.3782 274.219C18.4245 276.003 17.4845 278.256 16.5542 280.966L18.4458 281.616ZM21.1544 275.138C21.9625 273.522 23.1202 272.14 24.6431 270.989L23.4369 269.393C21.6798 270.722 20.3175 272.34 19.3656 274.244L21.1544 275.138ZM24.6647 270.972C26.0523 269.862 27.8577 269.271 30.16 269.271V267.271C27.5023 267.271 25.2277 267.96 23.4153 269.41L24.6647 270.972ZM30.16 269.271C32.5012 269.271 34.5719 269.863 36.4009 271.033L37.479 269.349C35.3081 267.959 32.8588 267.271 30.16 267.271V269.271ZM36.4131 271.041C38.2311 272.168 39.691 273.834 40.7796 276.086L42.5803 275.216C41.349 272.668 39.6489 270.694 37.4669 269.341L36.4131 271.041ZM40.7825 276.092C41.8612 278.287 42.42 280.929 42.42 284.051H44.42C44.42 280.693 43.8187 277.735 42.5774 275.21L40.7825 276.092ZM10.12 242.044H9.12V243.044H10.12V242.044ZM17.02 242.044V243.044H18.02V242.044H17.02ZM17.02 228.544V227.544H16.02V228.544H17.02ZM25.96 228.544H26.96V227.544H25.96V228.544ZM25.96 242.044H24.96V243.044H25.96V242.044ZM33.58 242.044V243.044H34.58V242.044H33.58ZM33.58 226.744V225.744H32.58V226.744H33.58ZM43 226.744H44V225.744H43V226.744ZM43 253.804V254.804H44V253.804H43ZM0.699996 253.804H-0.300004V254.804H0.699996V253.804ZM0.699996 226.744V225.744H-0.300004V226.744H0.699996ZM10.12 226.744H11.12V225.744H10.12V226.744ZM10.12 243.044H17.02L17.02 241.044H10.12L10.12 243.044ZM18.02 242.044L18.02 228.544H16.02L16.02 242.044H18.02ZM17.02 229.544H25.96V227.544H17.02V229.544ZM24.96 228.544L24.96 242.044H26.96L26.96 228.544H24.96ZM25.96 243.044H33.58L33.58 241.044H25.96L25.96 243.044ZM34.58 242.044L34.58 226.744H32.58L32.58 242.044H34.58ZM33.58 227.744H43V225.744H33.58V227.744ZM42 226.744V253.804H44V226.744H42ZM43 252.804H0.699996V254.804H43V252.804ZM1.7 253.804L1.7 226.744H-0.300004L-0.300004 253.804H1.7ZM0.699996 227.744H10.12V225.744H0.699996V227.744ZM9.12 226.744L9.12 242.044H11.12L11.12 226.744H9.12ZM43 190.513L43.4741 191.393L44 191.11V190.513H43ZM27.4 198.913L26.9259 198.033L26.4 198.316V198.913H27.4ZM27.4 200.173H26.4V201.173H27.4V200.173ZM43 200.173H44V199.173H43V200.173ZM43 211.933V212.933H44V211.933H43ZM0.699996 211.933H-0.300004V212.933H0.699996V211.933ZM2.5 184.753L3.39146 185.206L3.39745 185.194L2.5 184.753ZM7.35999 179.413L7.85974 180.279L7.86702 180.275L7.35999 179.413ZM21.88 180.013L21.2918 180.822L21.2945 180.824L21.88 180.013ZM26.5 186.913L25.5429 187.203L25.9083 188.41L27.0005 187.779L26.5 186.913ZM43 177.373H44V175.64L42.4995 176.507L43 177.373ZM19.36 200.173V201.173H20.36V200.173H19.36ZM18.22 190.753L17.495 191.442L18.22 190.753ZM11.74 190.813L12.4471 191.52L12.4648 191.502L12.4815 191.484L11.74 190.813ZM10.54 200.173H9.54V201.173H10.54V200.173ZM42.5259 189.633L26.9259 198.033L27.8741 199.793L43.4741 191.393L42.5259 189.633ZM26.4 198.913V200.173H28.4V198.913H26.4ZM27.4 201.173H43V199.173H27.4V201.173ZM42 200.173V211.933H44V200.173H42ZM43 210.933H0.699996V212.933H43V210.933ZM1.7 211.933L1.7 193.393H-0.300004L-0.300004 211.933H1.7ZM1.7 193.393C1.7 190.107 2.28015 187.392 3.39138 185.206L1.60861 184.3C0.319844 186.834 -0.300004 189.879 -0.300004 193.393H1.7ZM3.39745 185.194C4.47864 182.994 5.9678 181.371 7.85972 180.279L6.86027 178.547C4.59219 179.855 2.84136 181.792 1.60255 184.312L3.39745 185.194ZM7.86702 180.275C9.74087 179.173 11.8632 178.613 14.26 178.613V176.613C11.5367 176.613 9.05912 177.253 6.85298 178.551L7.86702 180.275ZM14.26 178.613C16.9418 178.613 19.2731 179.354 21.2918 180.822L22.4682 179.204C20.0869 177.472 17.3382 176.613 14.26 176.613V178.613ZM21.2945 180.824C23.2446 182.232 24.6737 184.331 25.5429 187.203L27.4571 186.623C26.4863 183.415 24.8354 180.914 22.4655 179.202L21.2945 180.824ZM27.0005 187.779L43.5005 178.239L42.4995 176.507L25.9995 186.047L27.0005 187.779ZM42 177.373V190.513H44V177.373H42ZM20.36 200.173L20.36 194.353H18.36L18.36 200.173H20.36ZM20.36 194.353C20.36 192.611 19.9472 191.119 18.945 190.064L17.495 191.442C18.0128 191.987 18.36 192.895 18.36 194.353H20.36ZM18.945 190.064C17.9433 189.01 16.5464 188.553 14.92 188.553V190.553C16.1736 190.553 16.9767 190.896 17.495 191.442L18.945 190.064ZM14.92 188.553C13.3391 188.553 11.9858 189.051 10.9985 190.142L12.4815 191.484C13.0142 190.895 13.7809 190.553 14.92 190.553V188.553ZM11.0329 190.106C9.98352 191.155 9.54 192.63 9.54 194.353H11.54C11.54 192.956 11.8965 192.071 12.4471 191.52L11.0329 190.106ZM9.54 194.353L9.54 200.173H11.54L11.54 194.353H9.54ZM10.54 201.173H19.36V199.173H10.54V201.173ZM0.699996 122.105L1.02586 121.16L-0.300004 120.703V122.105H0.699996ZM43 136.685H44V135.972L43.3259 135.74L43 136.685ZM43 151.745L43.3271 152.69L44 152.457V151.745H43ZM0.699996 166.385H-0.300004V167.789L1.02706 167.33L0.699996 166.385ZM0.699996 153.785L0.40012 152.831L-0.300004 153.051V153.785H0.699996ZM31.24 144.185L31.5399 145.139L34.5842 144.182L31.5382 143.231L31.24 144.185ZM0.699996 134.645H-0.300004V135.38L0.401827 135.6L0.699996 134.645ZM0.374129 123.05L42.6741 137.63L43.3259 135.74L1.02586 121.16L0.374129 123.05ZM42 136.685V151.745H44V136.685H42ZM42.6729 150.8L0.372931 165.44L1.02706 167.33L43.3271 152.69L42.6729 150.8ZM1.7 166.385L1.7 153.785H-0.300004L-0.300004 166.385H1.7ZM0.999871 154.739L31.5399 145.139L30.9401 143.231L0.40012 152.831L0.999871 154.739ZM31.5382 143.231L0.998164 133.691L0.401827 135.6L30.9418 145.14L31.5382 143.231ZM1.7 134.645V122.105H-0.300004V134.645H1.7ZM0.699996 97.6808L0.699996 96.6808H-0.300004L-0.300004 97.6808H0.699996ZM43 97.6808H44V96.6808H43V97.6808ZM43 109.441V110.441H44V109.441H43ZM0.699996 109.441H-0.300004V110.441H0.699996V109.441ZM0.699996 98.6808H43V96.6808H0.699996L0.699996 98.6808ZM42 97.6808V109.441H44V97.6808H42ZM43 108.441H0.699996V110.441H43V108.441ZM1.7 109.441V97.6808H-0.300004V109.441H1.7ZM10.66 80.8438L10.1872 81.7249L10.1911 81.727L10.66 80.8438ZM3.04 73.4038L3.91161 72.9135L3.9069 72.9053L3.04 73.4038ZM4.54 49.0438L5.32512 49.6631L5.32935 49.6577L4.54 49.0438ZM16 42.0838H17V40.8461L15.7899 41.1061L16 42.0838ZM16 54.7438L16.4291 55.6471L17 55.3758V54.7438H16ZM12.34 57.9238L13.1837 58.4607L13.1908 58.4493L12.34 57.9238ZM14.02 69.0838L13.3783 69.8507L13.3798 69.852L14.02 69.0838ZM29.62 69.0838L30.2524 69.8584L30.261 69.8514L30.2695 69.8441L29.62 69.0838ZM31.24 57.9238L30.3891 58.4493L30.3963 58.4607L31.24 57.9238ZM27.58 54.7438H26.58V55.3758L27.1509 55.6471L27.58 54.7438ZM27.58 42.0838L27.7901 41.1061L26.58 40.8461V42.0838H27.58ZM39.1 49.0438L39.8894 48.4298L39.8851 48.4244L39.1 49.0438ZM40.6 73.4038L41.4669 73.9023L41.4716 73.894L40.6 73.4038ZM32.98 80.8438L33.4444 81.7294L33.4509 81.726L33.4573 81.7225L32.98 80.8438ZM21.76 82.4238C17.7413 82.4238 14.2061 81.5941 11.1289 79.9605L10.1911 81.727C13.5939 83.5334 17.4587 84.4238 21.76 84.4238V82.4238ZM11.1328 79.9626C8.0177 78.2911 5.61711 75.9456 3.91157 72.9135L2.16842 73.894C4.06288 77.262 6.74229 79.8765 10.1872 81.7249L11.1328 79.9626ZM3.9069 72.9053C2.16474 69.8754 1.28 66.3715 1.28 62.3638H-0.720003C-0.720003 66.676 0.235253 70.5321 2.17309 73.9022L3.9069 72.9053ZM1.28 62.3638C1.28 57.2728 2.64489 53.0606 5.3251 49.6631L3.75489 48.4244C0.755103 52.227 -0.720003 56.8947 -0.720003 62.3638H1.28ZM5.32935 49.6577C7.97229 46.2596 11.5788 44.0566 16.2101 43.0615L15.7899 41.1061C10.7412 42.1909 6.7077 44.6279 3.75064 48.4298L5.32935 49.6577ZM15 42.0838V54.7438H17V42.0838H15ZM15.5709 53.8405C13.8164 54.6739 12.4412 55.8569 11.4892 57.3983L13.1908 58.4493C13.9188 57.2706 14.9836 56.3336 16.4291 55.6471L15.5709 53.8405ZM11.4963 57.3869C10.5418 58.8868 10.08 60.618 10.08 62.5438H12.08C12.08 60.9495 12.4581 59.6007 13.1837 58.4607L11.4963 57.3869ZM10.08 62.5438C10.08 65.5381 11.175 68.0072 13.3783 69.8507L14.6617 68.3168C12.945 66.8804 12.08 64.9894 12.08 62.5438H10.08ZM13.3798 69.852C15.5271 71.6414 18.3565 72.4838 21.76 72.4838V70.4838C18.6835 70.4838 16.3529 69.7262 14.6602 68.3155L13.3798 69.852ZM21.76 72.4838C25.2012 72.4838 28.0667 71.6426 30.2524 69.8584L28.9876 68.3091C27.2533 69.7249 24.8788 70.4838 21.76 70.4838V72.4838ZM30.2695 69.8441C32.4307 67.9981 33.5 65.5307 33.5 62.5438H31.5C31.5 64.9968 30.6493 66.8894 28.9705 68.3234L30.2695 69.8441ZM33.5 62.5438C33.5 60.618 33.0381 58.8868 32.0837 57.3869L30.3963 58.4607C31.1218 59.6007 31.5 60.9495 31.5 62.5438H33.5ZM32.0908 57.3983C31.1388 55.8569 29.7636 54.6739 28.0091 53.8405L27.1509 55.6471C28.5964 56.3336 29.6612 57.2706 30.3892 58.4493L32.0908 57.3983ZM28.58 54.7438V42.0838H26.58V54.7438H28.58ZM27.3699 43.0615C32.0019 44.0568 35.6309 46.2609 38.3149 49.6631L39.8851 48.4244C36.8891 44.6266 32.8381 42.1908 27.7901 41.1061L27.3699 43.0615ZM38.3106 49.6577C40.9532 53.0553 42.3 57.2695 42.3 62.3638H44.3C44.3 56.898 42.8468 52.2322 39.8893 48.4298L38.3106 49.6577ZM42.3 62.3638C42.3 66.3753 41.4335 69.8822 39.7284 72.9135L41.4716 73.894C43.3665 70.5254 44.3 66.6723 44.3 62.3638H42.3ZM39.7331 72.9053C37.9852 75.9452 35.5799 78.2934 32.5027 79.965L33.4573 81.7225C36.86 79.8741 39.5348 77.2624 41.4669 73.9022L39.7331 72.9053ZM32.5156 79.9582C29.3971 81.5935 25.8201 82.4238 21.76 82.4238V84.4238C26.0999 84.4238 30.0029 83.5341 33.4444 81.7294L32.5156 79.9582ZM10.12 15.755H9.12V16.755H10.12V15.755ZM17.02 15.755V16.755H18.02V15.755H17.02ZM17.02 2.25503V1.25503H16.02V2.25503H17.02ZM25.96 2.25503H26.96V1.25503H25.96V2.25503ZM25.96 15.755H24.96V16.755H25.96V15.755ZM33.58 15.755V16.755H34.58V15.755H33.58ZM33.58 0.455013V-0.544987H32.58V0.455013H33.58ZM43 0.455013H44V-0.544987H43V0.455013ZM43 27.515V28.515H44V27.515H43ZM0.699996 27.515H-0.300004V28.515H0.699996V27.515ZM0.699996 0.455013V-0.544987H-0.300004V0.455013H0.699996ZM10.12 0.455013H11.12V-0.544987H10.12V0.455013ZM10.12 16.755H17.02V14.755H10.12V16.755ZM18.02 15.755V2.25503H16.02V15.755H18.02ZM17.02 3.25503H25.96V1.25503H17.02V3.25503ZM24.96 2.25503V15.755H26.96V2.25503H24.96ZM25.96 16.755H33.58V14.755H25.96V16.755ZM34.58 15.755V0.455013H32.58V15.755H34.58ZM33.58 1.45501H43V-0.544987H33.58V1.45501ZM42 0.455013V27.515H44V0.455013H42ZM43 26.515H0.699996V28.515H43V26.515ZM1.7 27.515L1.7 0.455013H-0.300004L-0.300004 27.515H1.7ZM0.699996 1.45501H10.12V-0.544987H0.699996V1.45501ZM9.12 0.455013V15.755H11.12V0.455013H9.12Z" fill="url(#paint0_linear_12_2)" fill-opacity="0.46" mask="url(#path-1-outside-1_12_2)"/>
<defs>
<linearGradient id="paint0_linear_12_2" x1="-23" y1="187" x2="67" y2="187" gradientUnits="userSpaceOnUse">
<stop stop-color="#54E4A4" stop-opacity="0"/>
<stop offset="0.865" stop-color="#09101A" stop-opacity="0.96"/>
</linearGradient>
</defs>
</svg>
